<?xml version="1.0" encoding="UTF-8" standalone="no"?>
<!-- Created with Inkscape (http://www.inkscape.org/) -->
<svg
   xmlns:dc="http://purl.org/dc/elements/1.1/"
   xmlns:cc="http://creativecommons.org/ns#"
   xmlns:rdf="http://www.w3.org/1999/02/22-rdf-syntax-ns#"
   xmlns:svg="http://www.w3.org/2000/svg"
   xmlns="http://www.w3.org/2000/svg"
   xmlns:xlink="http://www.w3.org/1999/xlink"
   xmlns:sodipodi="http://sodipodi.sourceforge.net/DTD/sodipodi-0.dtd"
   xmlns:inkscape="http://www.inkscape.org/namespaces/inkscape"
   width="1052.3622"
   height="744.09448"
   id="svg2"
   sodipodi:version="0.32"
   inkscape:version="0.46"
   version="1.0"
   sodipodi:docname="oblasti.svg"
   inkscape:output_extension="org.inkscape.output.svg.inkscape">
  <defs
     id="defs4">
    <inkscape:perspective
       sodipodi:type="inkscape:persp3d"
       inkscape:vp_x="0 : 526.18109 : 1"
       inkscape:vp_y="0 : 1000 : 0"
       inkscape:vp_z="744.09448 : 526.18109 : 1"
       inkscape:persp3d-origin="372.04724 : 350.78739 : 1"
       id="perspective10" />
    <inkscape:perspective
       id="perspective2498"
       inkscape:persp3d-origin="372.04724 : 350.78739 : 1"
       inkscape:vp_z="744.09448 : 526.18109 : 1"
       inkscape:vp_y="0 : 1000 : 0"
       inkscape:vp_x="0 : 526.18109 : 1"
       sodipodi:type="inkscape:persp3d" />
  </defs>
  <sodipodi:namedview
     id="base"
     pagecolor="#ffffff"
     bordercolor="#666666"
     borderopacity="1.0"
     gridtolerance="10000"
     guidetolerance="10"
     objecttolerance="10"
     inkscape:pageopacity="0.0"
     inkscape:pageshadow="2"
     inkscape:zoom="3.959798"
     inkscape:cx="195.01443"
     inkscape:cy="333.27046"
     inkscape:document-units="px"
     inkscape:current-layer="layer3"
     showgrid="false"
     inkscape:window-width="1440"
     inkscape:window-height="852"
     inkscape:window-x="0"
     inkscape:window-y="0" />
  <metadata
     id="metadata7">
    <rdf:RDF>
      <cc:Work
         rdf:about="">
        <dc:format>image/svg+xml</dc:format>
        <dc:type
           rdf:resource="http://purl.org/dc/dcmitype/StillImage" />
      </cc:Work>
    </rdf:RDF>
  </metadata>
  <g
     inkscape:groupmode="layer"
     id="layer2"
     inkscape:label="image1"
     sodipodi:insensitive="true"
     style="display:inline">
    <image
       y="145.93359"
       x="152.42857"
       id="image2500"
       height="390"
       width="758"
       sodipodi:absref="/Users/sano/Documents/homeProjects/nalyze/theme/nabezky/images/geograficke_celky_small.jpg"
       xlink:href="geograficke_celky_small.jpg" />
  </g>
  <g
     inkscape:label="male karpaty"
     inkscape:groupmode="layer"
     id="layer1"
     style="display:none">
    <path
       style="fill:none;fill-rule:evenodd;stroke:#000000;stroke-width:1px;stroke-linecap:butt;stroke-linejoin:miter;stroke-opacity:1"
       d="M 181.78571,426.95162 L 187.85714,426.59448 L 190.35714,416.59448 L 188.92857,401.23734 L 198.21429,399.09448 L 207.14286,388.73734 L 207.14286,384.80877 L 210,383.73734 L 210.71429,378.02305 L 216.07143,375.16591 L 222.5,366.59448 L 227.85714,365.52305 L 233.21429,353.02305 L 239.28571,352.30877 L 243.57143,354.09448 L 246.78571,346.59448 L 260.71429,337.66591 L 270.35714,338.73734 L 267.85714,343.3802 L 272.5,343.3802 L 278.57143,331.95162 L 283.21429,326.59448 L 287.5,314.09448 L 290.71429,322.66591 L 290.35714,328.02305 L 287.14286,328.02305 L 285,332.66591 L 281.42857,334.09448 L 277.85714,340.16591 L 275.35714,341.23734 L 275,347.66591 L 271.07143,351.23734 L 268.21429,355.16591 L 259.28571,361.23734 L 248.92857,364.45162 L 244.64286,361.95162 L 242.5,368.73734 L 238.57143,373.3802 L 241.42857,376.95162 L 238.92857,381.95162 L 232.85714,386.59448 L 223.92857,404.09448 L 216.78571,404.09448 L 219.64286,409.45162 L 215,410.16591 L 214.64286,415.8802 L 207.14286,424.09448 L 202.85714,424.45162 L 202.5,429.45162 L 197.14286,437.66591 L 189.28571,437.66591 L 187.14286,438.73734 L 180.71429,433.02305 L 181.78571,426.95162 z"
       id="path2506" />
  </g>
  <g
     inkscape:groupmode="layer"
     id="layer3"
     inkscape:label="zahorska nizina"
     style="display:inline">
    <path
       style="fill:none;fill-rule:evenodd;stroke:#000000;stroke-width:1px;stroke-linecap:butt;stroke-linejoin:miter;stroke-opacity:1"
       d="M 181.7857,427.05878 L 187.85713,426.70164 L 190.35713,416.70164 L 188.92856,401.3445 L 198.21428,399.20164 L 207.14285,388.8445 L 207.14285,384.91593 L 209.99999,383.8445 L 210.71428,378.13021 L 216.07142,375.27307 L 222.49999,366.70164 L 227.85713,365.63021 L 233.21428,353.13021 L 239.2857,352.41593 L 243.57142,354.20164 L 246.7857,346.70164 L 242.5,346.23734 L 239.64286,349.09448 L 235,345.52305 L 231.07143,335.16591 L 217.85714,334.6302 L 206.96429,343.29091 L 197.94643,339.22842 L 196.59598,332.42596 L 201.31696,325.6235 L 201.75223,318.82104 L 208.97322,306.3043 L 198.6942,317.71614 L 188.41518,332.34225 L 188.13616,344.11123 L 178.92858,345.8802 L 179.15179,361.78645 L 171.16072,370.1927 L 165.66965,377.88467 L 166.60714,384.14806 L 163.97321,391.12574 L 165.26785,398.46056 L 172.32011,402.62443 L 171.83014,410.94536 L 177.65362,414.21552 L 177.16364,422.03137 L 181.7857,427.05878 z"
       id="path2508"
       sodipodi:nodetypes="cccccccccccccccccccccccccccccccccccccccccc" />
  </g>
</svg>
